<svg width="24" height="24" viewBox="0 0 24 24" fill="none" xmlns="http://www.w3.org/2000/svg">
<g clip-path="url(#clip0_19_441)">
<path d="M10.9501 18.55L16.6001 12.9L15.1751 11.475L10.9501 15.7L8.8251 13.575L7.4001 15L10.9501 18.55ZM12.0001 24C10.7501 24 9.57926 23.7625 8.4876 23.2875C7.39593 22.8125 6.44593 22.1708 5.6376 21.3625C4.82926 20.5542 4.1876 19.6042 3.7126 18.5125C3.2376 17.4208 3.0001 16.25 3.0001 15C3.0001 13.75 3.2376 12.5792 3.7126 11.4875C4.1876 10.3958 4.82926 9.44584 5.6376 8.63751C6.44593 7.82917 7.39593 7.18751 8.4876 6.71251C9.57926 6.23751 10.7501 6.00001 12.0001 6.00001C13.2501 6.00001 14.4209 6.23751 15.5126 6.71251C16.6043 7.18751 17.5543 7.82917 18.3626 8.63751C19.1709 9.44584 19.8126 10.3958 20.2876 11.4875C20.7626 12.5792 21.0001 13.75 21.0001 15C21.0001 16.25 20.7626 17.4208 20.2876 18.5125C19.8126 19.6042 19.1709 20.5542 18.3626 21.3625C17.5543 22.1708 16.6043 22.8125 15.5126 23.2875C14.4209 23.7625 13.2501 24 12.0001 24ZM5.6001 4.35001L7.0001 5.75001L2.7501 10L1.3501 8.60001L5.6001 4.35001ZM18.4001 4.35001L22.6501 8.60001L21.2501 10L17.0001 5.75001L18.4001 4.35001ZM12.0001 22C13.9501 22 15.6043 21.3208 16.9626 19.9625C18.3209 18.6042 19.0001 16.95 19.0001 15C19.0001 13.05 18.3209 11.3958 16.9626 10.0375C15.6043 8.67917 13.9501 8.00001 12.0001 8.00001C10.0501 8.00001 8.39593 8.67917 7.0376 10.0375C5.67926 11.3958 5.0001 13.05 5.0001 15C5.0001 16.95 5.67926 18.6042 7.0376 19.9625C8.39593 21.3208 10.0501 22 12.0001 22Z" fill="#1E1E1E"/>
</g>
<defs>
<clipPath id="clip0_19_441">
<rect width="24" height="24" fill="white"/>
</clipPath>
</defs>
</svg>
